HIERARCHY
ROOT Hips
{
	OFFSET 0.000000 0.000000 0.000000 
	CHANNELS 6 Xposition Yposition Zposition Zrotation Yrotation Xrotation
	JOINT LeftUpLeg
	{
		OFFSET 1.363060 -1.794630 0.839290 
		CHANNELS 3 Zrotation Yrotation Xrotation
		JOINT LeftLeg
		{
			OFFSET 2.448110 -6.726130 0.000000 
			CHANNELS 3 Zrotation Yrotation Xrotation
			JOINT LeftFoot
			{
				OFFSET 2.562200 -7.039590 0.000000 
				CHANNELS 3 Zrotation Yrotation Xrotation
				JOINT LeftToeBase
				{
					OFFSET 0.157640 -0.433110 2.322550 
					CHANNELS 3 Zrotation Yrotation Xrotation
					End Site
					{
						OFFSET 0.000000 0.000000 0.000000 
					}
				}
			}
		}
	}
	JOINT RightUpLeg
	{
		OFFSET -1.305520 -1.794630 0.839290 
		CHANNELS 3 Zrotation Yrotation Xrotation
		JOINT RightLeg
		{
			OFFSET -2.542530 -6.985550 0.000000 
			CHANNELS 3 Zrotation Yrotation Xrotation
			JOINT RightFoot
			{
				OFFSET -2.568260 -7.056230 0.000000 
				CHANNELS 3 Zrotation Yrotation Xrotation
				JOINT RightToeBase
				{
					OFFSET -0.164730 -0.452590 2.363150 
					CHANNELS 3 Zrotation Yrotation Xrotation
					End Site
					{
						OFFSET 0.000000 0.000000 0.000000 
					}
				}
			}
		}
	}
	JOINT Spine
	{
		OFFSET 0.028270 2.035590 -0.193380 
		CHANNELS 3 Zrotation Yrotation Xrotation
		JOINT Spine1
		{
			OFFSET 0.056720 2.048850 -0.042750 
			CHANNELS 3 Zrotation Yrotation Xrotation
			JOINT Neck1
			{
				OFFSET -0.054170 1.746240 0.172020 
				CHANNELS 3 Zrotation Yrotation Xrotation
				JOINT Head
				{
					OFFSET 0.104070 1.761360 -0.123970 
					CHANNELS 3 Zrotation Yrotation Xrotation
					End Site
					{
						OFFSET 0.000000 0.000000 0.000000 
					}
				}
			}
			JOINT LeftArm
			{
				OFFSET 3.362410 1.200890 -0.311210 
				CHANNELS 3 Zrotation Yrotation Xrotation
				JOINT LeftForeArm
				{
					OFFSET 4.983000 -0.000000 -0.000000 
					CHANNELS 3 Zrotation Yrotation Xrotation
					JOINT LeftHand
					{
						OFFSET 3.483560 -0.000000 -0.000000 
						CHANNELS 3 Zrotation Yrotation Xrotation
						JOINT LeftHandIndex1
						{
							OFFSET 0.715260 -0.000000 -0.000000 
							CHANNELS 3 Zrotation Yrotation Xrotation
							End Site
							{
								OFFSET 0.000000 0.000000 0.000000 
							}
						}
					}
				}
			}
			JOINT RightArm
			{
				OFFSET -3.136600 1.374050 -0.404650 
				CHANNELS 3 Zrotation Yrotation Xrotation
				JOINT RightForeArm
				{
					OFFSET -5.241900 -0.000000 -0.000000 
					CHANNELS 3 Zrotation Yrotation Xrotation
					JOINT RightHand
					{
						OFFSET -3.444170 -0.000000 -0.000000 
						CHANNELS 3 Zrotation Yrotation Xrotation
						JOINT RightHandIndex1
						{
							OFFSET -0.622530 -0.000000 -0.000000 
							CHANNELS 3 Zrotation Yrotation Xrotation
							End Site
							{
								OFFSET 0.000000 0.000000 0.000000 
							}
						}
					}
				}
			}
		}
	}
}
MOTION
Frames: 10
Frame Time: 0.041667
0.140056 16.543325 8.377765 -0.332710 4.396441 99.828599 -6.551477 -1.284202 -31.164306 4.914145 16.247577 42.046243 1.667258 6.105769 38.648700 0.006500 -0.520900 -1.431300 14.280038 -4.486415 -35.064637 -3.253918 -14.905811 34.913663 -2.967149 -14.707764 49.933781 -0.648700 -5.152000 14.342700 1.461207 12.337963 -4.944851 15.729970 8.905438 -1.907697 1.686446 -13.701835 -0.765832 -4.716500 -7.746400 -0.824800 -62.773806 -59.958891 69.612670 88.721269 -44.617215 -55.005739 1.169811 1.673778 -36.976936 -7.125000 0.000000 0.000000 24.351338 9.528990 16.817803 -68.677783 51.603824 -52.056116 0.157475 1.456579 -27.467286 7.125000 0.000000 0.000000 
0.140400 16.556057 8.397265 -0.364989 4.293860 99.334579 -7.037195 -1.112920 -31.250769 5.625579 16.782722 44.261640 1.607137 5.651359 38.163292 0.007900 -0.573000 -1.574600 14.348059 -4.683148 -34.930723 -3.330438 -14.950839 35.111677 -3.392488 -14.340563 51.099033 -0.605300 -4.980200 13.852000 1.465056 12.113337 -4.951133 15.689792 8.766488 -2.066791 1.767285 -13.447484 -0.869612 -4.577100 -7.618400 -0.748400 -63.286033 -57.064838 70.916089 88.728750 -45.860924 -54.587427 1.192449 1.760010 -36.699460 -7.125000 0.000000 0.000000 26.427521 8.899016 18.304035 -70.234259 52.195670 -53.301899 0.181759 1.337582 -26.218430 7.125000 0.000000 0.000000 
0.140859 16.569019 8.418486 -0.391414 4.184996 98.881342 -7.485294 -0.934462 -31.327272 6.308177 17.262136 46.361134 1.561316 5.229486 37.753901 0.006100 -0.502300 -1.380300 14.361082 -4.887371 -34.771050 -3.334176 -14.922551 35.040267 -3.804691 -14.117757 52.260991 -0.555000 -4.772300 13.260400 1.467316 11.865063 -4.958315 15.630820 8.607777 -2.183820 1.848883 -13.162540 -0.963253 -4.419100 -7.471900 -0.660100 -63.544036 -54.219368 71.969311 88.300542 -47.048050 -53.771413 1.172197 1.840081 -36.805834 -7.125000 0.000000 0.000000 28.439455 8.275144 19.735902 -71.443178 52.670661 -54.178079 0.212114 1.218353 -24.679606 7.125000 0.000000 0.000000 
0.141432 16.581980 8.440509 -0.403884 4.069511 98.474252 -7.892491 -0.763412 -31.393710 6.953850 17.687320 48.325192 1.515638 4.864039 37.367170 0.004300 -0.425000 -1.167700 14.318717 -5.095920 -34.590513 -3.263715 -14.820540 34.707445 -4.194309 -14.030961 53.373685 -0.500600 -4.536100 12.589900 1.470603 11.590475 -4.966417 15.552637 8.425999 -2.260627 2.087741 -12.846798 -1.084972 -4.597000 -7.309500 -0.640100 -63.593746 -51.433442 72.809964 87.451202 -48.192111 -52.600576 1.121148 1.913303 -37.322814 -7.125000 0.000000 0.000000 30.398885 7.659166 21.093402 -72.300832 53.039854 -54.694133 0.244396 1.098669 -22.872470 7.125000 0.000000 0.000000 
0.142350 16.594254 8.462877 -0.388112 3.960378 98.120762 -8.247551 -0.611861 -31.449001 7.545193 18.055574 50.130158 1.488110 4.500804 37.019866 0.002600 -0.331200 -0.909900 14.229503 -5.305647 -34.398816 -3.116416 -14.645958 34.125836 -4.553239 -14.060534 54.396590 -0.448400 -4.296200 11.911500 1.469884 11.302209 -4.977815 15.445762 8.231738 -2.290479 2.149217 -12.516345 -1.169243 -4.387800 -7.135500 -0.518000 -63.520622 -48.742592 73.490845 86.187196 -49.301464 -51.120082 1.051661 1.975726 -38.247745 -7.125000 0.000000 0.000000 32.287552 7.019419 22.364745 -72.826497 53.321166 -54.895300 0.276345 0.981488 -20.953592 7.125000 0.000000 0.000000 
0.143382 16.605495 8.485359 -0.346460 3.857607 97.823468 -8.549361 -0.480346 -31.493873 8.069883 18.368244 51.752909 1.486216 4.118306 36.730117 0.001200 -0.227000 -0.623600 14.093159 -5.506803 -34.196798 -2.892934 -14.398330 33.313720 -4.869954 -14.181884 55.288551 -0.402100 -4.071100 11.276800 1.467856 11.000681 -4.991688 15.314519 8.024981 -2.282911 2.207447 -12.175347 -1.258453 -4.175200 -6.956100 -0.390600 -63.356545 -46.135791 74.031955 84.526488 -50.365400 -49.379305 0.974627 2.022044 -39.526964 -7.125000 0.000000 0.000000 34.114389 6.341808 23.527497 -73.079130 53.537960 -54.848573 0.303732 0.871265 -19.131434 7.125000 0.000000 0.000000 
0.144415 16.614786 8.507841 -0.282081 3.766462 97.581059 -8.792516 -0.366248 -31.523029 8.516455 18.625559 53.167030 1.514423 3.703477 36.511195 0.000300 -0.103000 -0.283000 13.912806 -5.686477 -33.982658 -2.595054 -14.078331 32.291849 -5.129534 -14.370027 56.005537 -0.363900 -3.875300 10.726200 1.465018 10.689691 -5.007921 15.157768 7.809494 -2.244934 2.255303 -11.826954 -1.350200 -3.973300 -6.773900 -0.259600 -63.125727 -43.602649 74.472605 82.459938 -51.371747 -47.416648 0.906028 2.049327 -41.016823 -7.125000 0.000000 0.000000 35.875622 5.602771 24.592811 -73.132512 53.713483 -54.629903 0.327650 0.770001 -17.674933 7.125000 0.000000 0.000000 
0.144988 16.621898 8.529750 -0.192333 3.686966 97.398239 -8.977769 -0.273355 -31.536471 8.874942 18.828643 54.347794 1.573471 3.251828 36.369013 0.000000 0.022200 0.061100 13.687609 -5.837538 -33.762424 -2.230200 -13.688607 31.081852 -5.323220 -14.613564 56.529067 -0.336200 -3.726200 10.307700 1.461135 10.370826 -5.025768 14.983768 7.586276 -2.177130 2.307958 -11.484044 -1.445795 -3.765300 -6.593400 -0.124300 -62.850633 -41.147194 74.799615 80.032610 -52.282677 -45.285045 0.841209 2.050706 -42.646363 -7.125000 0.000000 0.000000 37.556536 4.787887 25.564744 -73.061437 53.867810 -54.315086 0.349083 0.680660 -16.738769 7.125000 0.000000 0.000000 
0.145218 16.626257 8.551544 -0.073956 3.625825 97.272618 -9.100191 -0.203630 -31.530980 9.137936 18.979087 55.271112 1.662367 2.767973 36.313682 0.000500 0.144900 0.398100 13.422646 -5.956035 -33.534984 -1.811339 -13.233291 29.704920 -5.437492 -14.935470 56.837006 -0.317900 -3.624500 10.022600 1.456080 10.035397 -5.043983 14.794994 7.350477 -2.082591 2.389801 -11.159959 -1.551131 -3.514000 -6.415900 0.005600 -62.520307 -38.747275 75.025599 77.268792 -53.062689 -43.013654 0.776899 2.023636 -44.219821 -7.125000 0.000000 0.000000 39.155348 3.904844 26.462088 -72.930474 54.016659 -53.963722 0.369216 0.603170 -16.340733 7.125000 0.000000 0.000000 
0.145103 16.627404 8.573224 0.072060 3.581118 97.201160 -9.161455 -0.154122 -31.500665 9.298650 19.076687 55.912053 1.775593 2.270357 36.344669 0.001700 0.264900 0.727900 13.115004 -6.033701 -33.297322 -1.352747 -12.717883 28.182629 -5.462025 -15.354303 56.915897 -0.306400 -3.558600 9.838000 1.452105 9.678579 -5.061629 14.568819 7.099449 -1.957624 2.450381 -10.832886 -1.676511 -3.294000 -6.240200 0.106200 -62.110013 -36.393915 75.172335 74.190886 -53.669182 -40.628634 0.713164 1.968876 -45.580240 -7.125000 0.000000 0.000000 40.668639 2.970119 27.309535 -72.781713 54.168474 -53.608792 0.389408 0.536242 -16.363904 7.125000 0.000000 0.000000 
